#!OML:ASF F:\VICON\USERDATA\INSTALL\Justin_Nancy\Justin_Nancy.ASF
:FULLY-SPECIFIED
:DEGREES
127
root -8.18022 17.5991 -11.4641 0.0934628 2.43816 -1.8961
lowerback 4.82035 -0.978207 -0.610265
upperback 0.701916 -1.26322 3.39163
thorax -1.89055 -0.618288 3.92136
lowerneck -15.7254 -3.07928 -9.76243
upperneck 24.7399 -2.87302 4.44762
head 10.7879 -1.69854 2.85279
rclavicle 4.82053e-015 -1.90833e-014
rhumerus -33.201 -17.2226 -75.8111
rradius 26.4335
rwrist 11.8973
rhand -16.4489 16.41
rfingers 7.12502
rthumb 9.76707 -13.3435
lclavicle 4.82053e-015 -1.90833e-014
lhumerus -27.9476 4.75415 85.1675
lradius 30.5789
lwrist -9.93137
lhand -12.857 33.2518
lfingers 7.12502
lthumb 13.231 62.8119
rfemur -17.5111 5.29534 22.0201
rtibia 20.5002
rfoot -1.22247 -0.167556
rtoes -2.1466
lfemur -3.67956 -4.13488 -23.6103
ltibia 50.7193
lfoot 12.0851 -8.83812
ltoes -4.26852
128
root -8.1789 17.6177 -11.3078 -0.132451 2.69857 -2.33097
lowerback 4.81943 -0.930789 -0.193988
upperback 0.787543 -1.17937 3.4366
thorax -1.81549 -0.580358 3.72595
lowerneck -15.4131 -3.08468 -9.61411
upperneck 24.5487 -2.96243 4.49235
head 10.6605 -1.71948 2.83022
rclavicle -5.01931e-015 1.74931e-014
rhumerus -33.1122 -16.858 -75.9946
rradius 26.4346
rwrist 11.4206
rhand -16.5541 15.2136
rfingers 7.12502
rthumb 9.66554 -14.5447
lclavicle -5.01931e-015 1.74931e-014
lhumerus -28.1261 4.80155 85.1629
lradius 30.1682
lwrist -10.6973
lhand -12.69 32.5614
lfingers 7.12502
lthumb 13.392 62.1109
rfemur -16.3854 5.32891 22.6255
rtibia 19.958
rfoot -1.43002 -0.642672
rtoes 1.12253
lfemur -4.87913 -3.77967 -22.9047
ltibia 52.8771
lfoot 13.0759 -10.1735
ltoes -4.83721
129
root -8.17792 17.6351 -11.1586 -0.219393 2.9006 -2.71402
lowerback 4.89217 -0.832302 0.152674
upperback 0.796507 -1.02715 3.49724
thorax -1.86207 -0.505668 3.58501
lowerneck -15.292 -3.15093 -9.58921
upperneck 24.421 -3.0747 4.50311
head 10.5988 -1.76574 2.81299
rclavicle -8.69683e-015 1.59028e-014
rhumerus -33.0067 -16.8007 -76.0014
rradius 26.5775
rwrist 11.8859
rhand -15.1492 12.3453
rfingers 7.12502
rthumb 11.0208 -17.3454
lclavicle -8.69683e-015 1.59028e-014
lhumerus -28.4139 4.70119 85.3119
lradius 30.0203
lwrist -11.0083
lhand -12.4402 32.8866
lfingers 7.12502
lthumb 13.6327 62.4202
rfemur -15.5096 5.35556 23.1593
rtibia 19.5457
rfoot -1.7406 -0.937447
rtoes 2.97635
lfemur -6.2349 -3.38881 -22.2826
ltibia 54.9132
lfoot 12.9045 -10.9214
ltoes -5.52116
130
root -8.17221 17.6564 -11.0168 -0.291325 3.27916 -2.82716
lowerback 5.05672 -0.795134 0.298468
upperback 0.753772 -0.965253 3.45497
thorax -2.0051 -0.474129 3.45875
lowerneck -15.3163 -3.22249 -9.5627
upperneck 24.5138 -3.18664 4.52338
head 10.6466 -1.81288 2.80159
rclavicle 3.23522e-014 -9.54166e-015
rhumerus -32.9868 -16.7487 -75.9758
rradius 26.7438
rwrist 12.2632
rhand -13.651 10.4761
rfingers 7.12502
rthumb 12.4656 -19.1321
lclavicle 3.23522e-014 -9.54166e-015
lhumerus -28.8176 4.65046 85.4593
lradius 30.1106
lwrist -11.3902
lhand -11.162 36.3494
lfingers 7.12502
lthumb 14.8644 65.7961
rfemur -14.71 5.06435 23.3538
rtibia 19.2429
rfoot -1.83929 -0.975148
rtoes 2.3695
lfemur -7.6595 -3.23238 -22.0253
ltibia 56.7768
lfoot 11.9476 -9.48416
ltoes -3.11447
131
root -8.1694 17.6682 -10.8781 -0.379839 3.7596 -2.98184
lowerback 5.07469 -0.739389 0.339724
upperback 0.878757 -0.890471 3.51582
thorax -1.89043 -0.438492 3.49239
lowerneck -15.479 -3.3207 -9.71502
upperneck 24.5413 -3.29935 4.64924
head 10.7032 -1.86144 2.85671
rclavicle -1.963e-014 7.95139e-015
rhumerus -32.5638 -16.5079 -75.9909
rradius 26.7621
rwrist 11.8543
rhand -13.0078 9.75495
rfingers 7.12502
rthumb 13.0856 -19.8145
lclavicle -1.963e-014 7.95139e-015
lhumerus -28.8945 4.96582 85.6195
lradius 29.7559
lwrist -11.5636
lhand -11.9192 34.5199
lfingers 7.12502
lthumb 14.1348 64.0191
rfemur -13.9919 4.75803 23.6051
rtibia 19.1025
rfoot -1.97118 -1.06152
rtoes 0.82082
lfemur -9.02559 -3.04625 -21.6852
ltibia 58.4718
lfoot 10.0595 -7.90095
ltoes -4.74165
132
root -8.17039 17.6757 -10.7407 -0.522678 4.14907 -3.2867
lowerback 4.12902 -0.635466 0.45318
upperback 1.73915 -0.796689 3.64085
thorax -0.482194 -0.407693 3.52713
lowerneck -15.9614 -3.49992 -9.91131
upperneck 23.993 -3.49873 4.89905
head 10.6201 -1.92512 2.94071
rclavicle 1.47598e-014 -7.95139e-015
rhumerus -30.9254 -16.9361 -76.1787
rradius 26.4446
rwrist 11.9382
rhand -13.124 9.50831
rfingers 7.12502
rthumb 12.9736 -20.0683
lclavicle 1.47598e-014 -7.95139e-015
lhumerus -27.6996 5.21244 85.9306
lradius 29.4027
lwrist -11.644
lhand -11.6935 33.9741
lfingers 7.12502
lthumb 14.3523 63.458
rfemur -13.3112 4.71485 24.0377
rtibia 19.0485
rfoot -2.40859 -1.56871
rtoes 0.581478
lfemur -10.2621 -2.7281 -21.1604
ltibia 59.9539
lfoot 7.7042 -6.69518
ltoes -7.53607
